<svg width="37" height="37" viewBox="0 0 37 37" fill="none" xmlns="http://www.w3.org/2000/svg">
<g id="Bell_pin_fill">
<path id="Subtract" fill-rule="evenodd" clip-rule="evenodd" d="M22.8811 5.60244C21.8631 5.04626 20.7131 4.70563 19.4947 4.63748C19.2715 4.625 19.0144 4.625 18.5 4.625C17.9856 4.625 17.7285 4.625 17.5053 4.63748C13.7727 4.84625 10.6824 7.61222 10.0627 11.2989C10.0256 11.5194 9.99722 11.775 9.94042 12.2862L9.55223 15.7799C9.44333 16.76 9.38888 17.25 9.27632 17.7252C9.16197 18.2079 9.00298 18.679 8.8014 19.1322C8.60294 19.5784 8.34927 20.0012 7.84193 20.8468L6.44239 23.1793C5.63664 24.5223 5.23376 25.1937 5.52099 25.701C5.80822 26.2083 6.59127 26.2083 8.15738 26.2083H28.8426C30.4087 26.2083 31.1918 26.2083 31.479 25.701C31.7662 25.1937 31.3634 24.5223 30.5576 23.1793L29.1581 20.8468C28.6507 20.0012 28.3971 19.5784 28.1986 19.1322C27.997 18.679 27.838 18.2079 27.7237 17.7252C27.6111 17.2501 27.5567 16.76 27.4478 15.78L27.4478 15.7799L27.397 15.3233C24.2016 15.1404 21.6667 12.4913 21.6667 9.25C21.6667 7.88161 22.1185 6.61874 22.8811 5.60244ZM25.2021 7.5131C26.0822 8.57183 26.6964 9.8658 26.9373 11.2989C26.9736 11.5148 27.0016 11.7645 27.0561 12.2549C25.6874 11.9402 24.6667 10.7143 24.6667 9.25C24.6667 8.6058 24.8642 8.00774 25.2021 7.5131Z" fill="#262323"/>
<path id="Ellipse 45" d="M13.875 26.2083C13.875 26.8157 13.9946 27.4171 14.2271 27.9782C14.4595 28.5394 14.8002 29.0492 15.2296 29.4787C15.6591 29.9082 16.169 30.2488 16.7301 30.4813C17.2912 30.7137 17.8926 30.8333 18.5 30.8333C19.1074 30.8333 19.7088 30.7137 20.2699 30.4813C20.831 30.2488 21.3409 29.9082 21.7704 29.4787C22.1998 29.0492 22.5405 28.5394 22.7729 27.9782C23.0054 27.4171 23.125 26.8157 23.125 26.2083L18.5 26.2083H13.875Z" fill="#262323"/>
<path id="Ellipse 6" d="M27.75 12.8334C29.729 12.8334 31.3333 11.229 31.3333 9.25002C31.3333 7.271 29.729 5.66669 27.75 5.66669C25.771 5.66669 24.1667 7.271 24.1667 9.25002C24.1667 11.229 25.771 12.8334 27.75 12.8334Z" fill="#262323" stroke="#262323"/>
</g>
</svg>
